<?xml version="1.0"?>
<svg version="1.1" xmlns="http://www.w3.org/2000/svg" xmlns:xlink="http://www.w3.org/1999/xlink" width="612" height="140">
    <desc iVinci="yes" version="4.5" gridStep="20" showGrid="no" snapToGrid="no" codePlatform="0"/>
    <g id="Layer1" opacity="1">
        <g id="Shape1">
            <desc shapeID="1" type="0" basicInfo-basicType="0" basicInfo-roundedRectRadius="12" basicInfo-polygonSides="6" basicInfo-starPoints="5" bounding="rect(-12.9,-12.9,25.8,25.8)" text="" font-familyName="" font-pixelSize="20" font-bold="0" font-underline="0" font-alignment="1" strokeStyle="0" markerStart="0" markerEnd="0" shadowEnabled="0" shadowOffsetX="0" shadowOffsetY="2" shadowBlur="4" shadowOpacity="160" blurEnabled="0" blurRadius="4" transform="matrix(1,0,0,1,82.55,69)" pers-center="0,0" pers-size="0,0" pers-start="0,0" pers-end="0,0" locked="0" mesh="" flag=""/>
            <path id="shapePath1" d="M95.45,69 C95.45,76.1 89.65,81.9 82.55,81.9 C75.45,81.9 69.65,76.1 69.65,69 C69.65,61.9 75.45,56.1 82.55,56.1 C89.75,56.1 95.45,61.9 95.45,69 Z" style="stroke:none;fill-rule:nonzero;fill:#27aae1;fill-opacity:1;"/>
        </g>
        <g id="Shape2">
            <desc shapeID="2" type="0" basicInfo-basicType="0" basicInfo-roundedRectRadius="12" basicInfo-polygonSides="6" basicInfo-starPoints="5" bounding="rect(-10.4,-32.5,20.8,65)" text="" font-familyName="" font-pixelSize="20" font-bold="0" font-underline="0" font-alignment="1" strokeStyle="0" markerStart="0" markerEnd="0" shadowEnabled="0" shadowOffsetX="0" shadowOffsetY="2" shadowBlur="4" shadowOpacity="160" blurEnabled="0" blurRadius="4" transform="matrix(1,0,0,1,186.45,89.1)" pers-center="0,0" pers-size="0,0" pers-start="0,0" pers-end="0,0" locked="0" mesh="" flag=""/>
            <path id="shapePath2" d="M176.05,56.6 L196.85,56.6 L196.85,121.6 L176.05,121.6 L176.05,56.6 Z" style="stroke:none;fill-rule:nonzero;fill:#27aae1;fill-opacity:1;"/>
        </g>
        <g id="Shape3">
            <desc shapeID="3" type="0" basicInfo-basicType="0" basicInfo-roundedRectRadius="12" basicInfo-polygonSides="6" basicInfo-starPoints="5" bounding="rect(-36.45,-47.85,72.9,95.7)" text="" font-familyName="" font-pixelSize="20" font-bold="0" font-underline="0" font-alignment="1" strokeStyle="0" markerStart="0" markerEnd="0" shadowEnabled="0" shadowOffsetX="0" shadowOffsetY="2" shadowBlur="4" shadowOpacity="160" blurEnabled="0" blurRadius="4" transform="matrix(1,0,0,1,243.8,73.75)" pers-center="0,0" pers-size="0,0" pers-start="0,0" pers-end="0,0" locked="0" mesh="" flag=""/>
            <path id="shapePath3" d="M207.35,25.9 L280.25,25.9 L280.25,44.9 L228.45,44.9 L228.45,65.5 L274.15,65.5 L274.15,84.5 L228.45,84.5 L228.45,121.6 L207.35,121.6 L207.35,25.9 Z" style="stroke:none;fill-rule:nonzero;fill:#27aae1;fill-opacity:1;"/>
        </g>
        <g id="Shape4">
            <desc shapeID="4" type="0" basicInfo-basicType="0" basicInfo-roundedRectRadius="12" basicInfo-polygonSides="6" basicInfo-starPoints="5" bounding="rect(-33.7,-37.65,67.4,75.3)" text="" font-familyName="" font-pixelSize="20" font-bold="0" font-underline="0" font-alignment="1" strokeStyle="0" markerStart="0" markerEnd="0" shadowEnabled="0" shadowOffsetX="0" shadowOffsetY="2" shadowBlur="4" shadowOpacity="160" blurEnabled="0" blurRadius="4" transform="matrix(1,0,0,1,309.25,85.35)" pers-center="0,0" pers-size="0,0" pers-start="0,0" pers-end="0,0" locked="0" mesh="" flag=""/>
            <path id="shapePath4" d="M300.75,123 C297.25,123 294.05,122.5 290.95,121.6 C287.85,120.6 285.25,119.2 282.95,117.3 C280.65,115.4 278.85,113 277.55,110.3 C276.25,107.5 275.55,104.3 275.55,100.7 L275.55,100.4 C275.55,96.4 276.25,92.9 277.75,90 C279.25,87.1 281.25,84.7 283.85,82.8 C286.45,80.9 289.55,79.5 293.15,78.5 C296.75,77.5 300.75,77.1 305.15,77.1 C308.85,77.1 312.15,77.4 314.95,77.9 C317.75,78.4 320.45,79.2 323.05,80.1 L323.05,78.9 C323.05,74.5 321.75,71.2 319.05,68.9 C316.45,66.6 312.45,65.5 307.25,65.5 C303.25,65.5 299.75,65.8 296.65,66.5 C293.55,67.2 290.35,68.2 287.05,69.4 L281.85,53.5 C285.85,51.8 290.05,50.4 294.45,49.3 C298.85,48.2 304.15,47.7 310.35,47.7 C316.05,47.7 320.95,48.4 325.05,49.8 C329.15,51.2 332.45,53.2 335.05,55.9 C337.75,58.6 339.75,62 341.05,65.9 C342.35,69.9 342.95,74.3 342.95,79.2 L342.95,121.7 L322.85,121.7 L322.85,113.8 C320.25,116.6 317.25,118.9 313.65,120.6 C310.15,122.1 305.85,123 300.75,123 M307.05,108.6 C311.95,108.6 315.95,107.4 318.85,105 C321.85,102.6 323.25,99.5 323.25,95.7 L323.25,92 C321.45,91.2 319.35,90.5 317.15,90 C314.95,89.5 312.55,89.2 309.95,89.2 C305.45,89.2 301.95,90.1 299.45,91.8 C296.85,93.5 295.65,96 295.65,99.3 L295.65,99.6 C295.65,102.4 296.65,104.6 298.75,106.2 C300.95,107.8 303.65,108.6 307.05,108.6 Z" style="stroke:none;fill-rule:nonzero;fill:#27aae1;fill-opacity:1;"/>
        </g>
        <g id="Shape5">
            <desc shapeID="5" type="0" basicInfo-basicType="0" basicInfo-roundedRectRadius="12" basicInfo-polygonSides="6" basicInfo-starPoints="5" bounding="rect(-34.05,-38.15,68.1,76.3)" text="" font-familyName="" font-pixelSize="20" font-bold="0" font-underline="0" font-alignment="1" strokeStyle="0" markerStart="0" markerEnd="0" shadowEnabled="0" shadowOffsetX="0" shadowOffsetY="2" shadowBlur="4" shadowOpacity="160" blurEnabled="0" blurRadius="4" transform="matrix(1,0,0,1,381.7,85.05)" pers-center="0,0" pers-size="0,0" pers-start="0,0" pers-end="0,0" locked="0" mesh="" flag=""/>
            <path id="shapePath5" d="M385.75,123.2 C380.25,123.2 375.15,122.2 370.55,120.2 C365.85,118.2 361.85,115.5 358.45,112.1 C355.05,108.7 352.45,104.7 350.55,100.1 C348.65,95.5 347.65,90.6 347.65,85.4 L347.65,85.1 C347.65,79.9 348.65,75 350.55,70.3 C352.45,65.7 355.15,61.6 358.45,58.1 C361.85,54.6 365.85,51.9 370.55,49.9 C375.25,47.9 380.45,46.9 386.05,46.9 C392.95,46.9 398.75,48 403.25,50.2 C407.85,52.4 411.85,55.4 415.25,59.2 L402.55,72.9 C400.15,70.4 397.75,68.5 395.25,67 C392.75,65.5 389.65,64.8 385.85,64.8 C383.25,64.8 380.85,65.3 378.65,66.4 C376.55,67.4 374.65,68.9 373.05,70.7 C371.45,72.5 370.25,74.6 369.35,77.1 C368.45,79.5 368.05,82.1 368.05,84.8 L368.05,85.1 C368.05,87.9 368.45,90.6 369.35,93 C370.25,95.5 371.45,97.6 373.15,99.4 C374.75,101.2 376.75,102.7 379.05,103.7 C381.35,104.8 383.85,105.3 386.75,105.3 C390.25,105.3 393.25,104.6 395.85,103.2 C398.45,101.8 401.05,99.9 403.55,97.5 L415.75,109.8 C412.15,113.7 408.15,116.9 403.55,119.4 C398.95,122 392.95,123.2 385.75,123.2 Z" style="stroke:none;fill-rule:nonzero;fill:#27aae1;fill-opacity:1;"/>
        </g>
        <g id="Shape6">
            <desc shapeID="6" type="0" basicInfo-basicType="0" basicInfo-roundedRectRadius="12" basicInfo-polygonSides="6" basicInfo-starPoints="5" bounding="rect(-23.4,-46.6,46.8,93.2)" text="" font-familyName="" font-pixelSize="20" font-bold="0" font-underline="0" font-alignment="1" strokeStyle="0" markerStart="0" markerEnd="0" shadowEnabled="0" shadowOffsetX="0" shadowOffsetY="2" shadowBlur="4" shadowOpacity="160" blurEnabled="0" blurRadius="4" transform="matrix(1,0,0,1,440.95,76.2)" pers-center="0,0" pers-size="0,0" pers-start="0,0" pers-end="0,0" locked="0" mesh="" flag=""/>
            <path id="shapePath6" d="M447.75,122.8 C444.55,122.8 441.65,122.5 439.05,121.8 C436.45,121.1 434.25,119.9 432.35,118.2 C430.45,116.5 429.05,114.2 427.95,111.4 C426.85,108.6 426.35,105.1 426.35,100.8 L426.35,66.1 L417.55,66.1 L417.55,48.3 L426.35,48.3 L426.35,29.6 L447.15,29.6 L447.15,48.3 L464.35,48.3 L464.35,66.1 L447.15,66.1 L447.15,97.5 C447.15,102.3 449.35,104.6 453.85,104.6 C457.45,104.6 460.95,103.7 464.15,101.9 L464.15,118.6 C461.95,119.9 459.55,120.9 456.95,121.7 C454.25,122.4 451.25,122.8 447.75,122.8 Z" style="stroke:none;fill-rule:nonzero;fill:#27aae1;fill-opacity:1;"/>
        </g>
        <g id="Shape7">
            <desc shapeID="7" type="0" basicInfo-basicType="0" basicInfo-roundedRectRadius="12" basicInfo-polygonSides="6" basicInfo-starPoints="5" bounding="rect(-39.65,-38.1,79.3,76.2)" text="" font-familyName="" font-pixelSize="20" font-bold="0" font-underline="0" font-alignment="1" strokeStyle="0" markerStart="0" markerEnd="0" shadowEnabled="0" shadowOffsetX="0" shadowOffsetY="2" shadowBlur="4" shadowOpacity="160" blurEnabled="0" blurRadius="4" transform="matrix(1,0,0,1,506,85.1)" pers-center="0,0" pers-size="0,0" pers-start="0,0" pers-end="0,0" locked="0" mesh="" flag=""/>
            <path id="shapePath7" d="M505.85,123.2 C500.15,123.2 494.95,122.2 490.15,120.3 C485.35,118.3 481.15,115.6 477.65,112.2 C474.15,108.8 471.35,104.8 469.35,100.2 C467.35,95.6 466.35,90.6 466.35,85.4 L466.35,85.1 C466.35,79.8 467.35,74.9 469.35,70.3 C471.35,65.7 474.15,61.7 477.65,58.2 C481.25,54.7 485.35,52 490.25,50 C495.05,48 500.35,47 506.15,47 C511.75,47 517.05,48 521.85,49.9 C526.65,51.9 530.85,54.5 534.35,58 C537.85,61.4 540.65,65.4 542.65,70 C544.65,74.6 545.65,79.6 545.65,84.8 L545.65,85.1 C545.65,90.4 544.65,95.3 542.65,99.9 C540.65,104.5 537.85,108.5 534.35,112 C530.75,115.5 526.55,118.2 521.75,120.2 C516.85,122.2 511.55,123.2 505.85,123.2 M506.05,105.3 C509.05,105.3 511.75,104.8 514.05,103.7 C516.35,102.7 518.35,101.2 520.05,99.4 C521.65,97.6 522.95,95.5 523.85,93 C524.75,90.6 525.15,88 525.15,85.3 L525.15,85 C525.15,82.3 524.65,79.7 523.75,77.3 C522.85,74.9 521.55,72.7 519.75,70.9 C518.05,69 515.95,67.5 513.55,66.5 C511.15,65.4 508.55,64.9 505.75,64.9 C502.75,64.9 500.05,65.4 497.75,66.5 C495.45,67.5 493.45,69 491.85,70.8 C490.25,72.6 488.95,74.7 488.05,77.2 C487.15,79.6 486.75,82.2 486.75,84.9 L486.75,85.2 C486.75,87.9 487.25,90.5 488.15,92.9 C489.05,95.3 490.35,97.5 492.15,99.3 C493.85,101.2 495.95,102.7 498.25,103.7 C500.55,104.8 503.15,105.3 506.05,105.3 Z" style="stroke:none;fill-rule:nonzero;fill:#27aae1;fill-opacity:1;"/>
        </g>
        <g id="Shape8">
            <desc shapeID="8" type="0" basicInfo-basicType="0" basicInfo-roundedRectRadius="12" basicInfo-polygonSides="6" basicInfo-starPoints="5" bounding="rect(-22.1,-37.3699,44.2,74.7398)" text="" font-familyName="" font-pixelSize="20" font-bold="0" font-underline="0" font-alignment="1" strokeStyle="0" markerStart="0" markerEnd="0" shadowEnabled="0" shadowOffsetX="0" shadowOffsetY="2" shadowBlur="4" shadowOpacity="160" blurEnabled="0" blurRadius="4" transform="matrix(1,0,0,1,571.75,84.3301)" pers-center="0,0" pers-size="0,0" pers-start="0,0" pers-end="0,0" locked="0" mesh="" flag=""/>
            <path id="shapePath8" d="M549.65,48.3 L570.45,48.3 L570.45,63.1 C572.55,58.1 575.45,54.1 579.05,51.1 C582.65,48.1 587.65,46.7 593.85,47 L593.85,68.7 L592.75,68.7 C585.85,68.7 580.35,70.8 576.45,75 C572.45,79.2 570.55,85.7 570.55,94.6 L570.55,121.7 L549.75,121.7 L549.75,48.3 L549.65,48.3 Z" style="stroke:none;fill-rule:nonzero;fill:#27aae1;fill-opacity:1;"/>
        </g>
        <g id="Shape9">
            <desc shapeID="9" type="0" basicInfo-basicType="0" basicInfo-roundedRectRadius="12" basicInfo-polygonSides="6" basicInfo-starPoints="5" bounding="rect(-11.7,-11.7,23.4,23.4)" text="" font-familyName="" font-pixelSize="20" font-bold="0" font-underline="0" font-alignment="1" strokeStyle="0" markerStart="0" markerEnd="0" shadowEnabled="0" shadowOffsetX="0" shadowOffsetY="2" shadowBlur="4" shadowOpacity="160" blurEnabled="0" blurRadius="4" transform="matrix(1,0,0,1,186.45,37.5)" pers-center="0,0" pers-size="0,0" pers-start="0,0" pers-end="0,0" locked="0" mesh="" flag=""/>
            <path id="shapePath9" d="M198.15,37.5 C198.15,43.9617 192.912,49.2 186.45,49.2 C179.988,49.2 174.75,43.9617 174.75,37.5 C174.75,31.0383 179.988,25.8 186.45,25.8 C192.912,25.8 198.15,31.0383 198.15,37.5 Z" style="stroke:none;fill-rule:evenodd;fill:#27aae1;fill-opacity:1;"/>
        </g>
        <g id="Shape10">
            <desc shapeID="10" type="0" basicInfo-basicType="0" basicInfo-roundedRectRadius="12" basicInfo-polygonSides="6" basicInfo-starPoints="5" bounding="rect(-64.6,-64.6,129.2,129.2)" text="" font-familyName="" font-pixelSize="20" font-bold="0" font-underline="0" font-alignment="1" strokeStyle="0" markerStart="0" markerEnd="0" shadowEnabled="0" shadowOffsetX="0" shadowOffsetY="2" shadowBlur="4" shadowOpacity="160" blurEnabled="0" blurRadius="4" transform="matrix(1,0,0,1,82.75,69)" pers-center="0,0" pers-size="0,0" pers-start="0,0" pers-end="0,0" locked="0" mesh="" flag=""/>
            <path id="shapePath10" d="M82.75,4.39999 C47.05,4.39999 18.15,33.3 18.15,69 C18.15,75.2 23.25,80.3 29.45,80.3 C35.65,80.3 40.75,75.2 40.75,69 C40.75,45.8 59.55,27 82.75,27 C105.95,27 124.75,45.8 124.75,69 C124.75,92.2 105.95,111 82.75,111 C76.55,111 71.45,116.1 71.45,122.3 C71.45,128.5 76.55,133.6 82.75,133.6 C118.45,133.6 147.35,104.7 147.35,69 C147.35,33.3 118.45,4.39999 82.75,4.39999 Z" style="stroke:none;fill-rule:nonzero;fill:#27aae1;fill-opacity:1;"/>
        </g>
        <g id="Shape11">
            <desc shapeID="11" type="0" basicInfo-basicType="0" basicInfo-roundedRectRadius="12" basicInfo-polygonSides="6" basicInfo-starPoints="5" bounding="rect(-25.0769,-25.0769,50.1538,50.1539)" text="" font-familyName="" font-pixelSize="20" font-bold="0" font-underline="0" font-alignment="1" strokeStyle="0" markerStart="0" markerEnd="0" shadowEnabled="0" shadowOffsetX="0" shadowOffsetY="2" shadowBlur="4" shadowOpacity="160" blurEnabled="0" blurRadius="4" transform="matrix(1,0,0,1,45.65,105.6)" pers-center="0,0" pers-size="0,0" pers-start="0,0" pers-end="0,0" locked="0" mesh="" flag=""/>
            <path id="shapePath11" d="M39.05,127.9 C35.25,131.7 28.85,131.6 24.85,127.6 L23.65,126.4 C19.65,122.4 19.55,116 23.35,112.2 L52.25,83.3 C56.05,79.5 62.45,79.6 66.45,83.6 L67.65,84.8 C71.65,88.8 71.75,95.2 67.95,99 L39.05,127.9 Z" style="stroke:none;fill-rule:nonzero;fill:#27aae1;fill-opacity:1;"/>
        </g>
    </g>
</svg>
