<?xml version="1.0" encoding="utf-8"?>
<!-- Generator: Adobe Illustrator 18.1.1, SVG Export Plug-In . SVG Version: 6.00 Build 0)  -->
<svg version="1.1" id="Layer_1" xmlns="http://www.w3.org/2000/svg" xmlns:xlink="http://www.w3.org/1999/xlink" x="0px" y="0px"
	 viewBox="0 0 612 792" enable-background="new 0 0 612 792" xml:space="preserve">
<g>
	<g>
		<path fill="#9A9B9C" d="M95.6,396c0,7.1-5.8,12.9-12.9,12.9c-7.1,0-12.9-5.8-12.9-12.9c0-7.1,5.8-12.9,12.9-12.9
			C89.9,383.1,95.6,388.9,95.6,396z"/>
	</g>
	<g display="none">
		<path display="inline" fill="#9A9B9C" d="M25.7,460.2c-3.2,1.8-9-4.9-7.4-7.4c0.8-1.5,25.9-44.4,41.8-44.7
			c4.6,0.4,9.9,5.7,10.3,10.3C69.9,434.1,26.8,459.6,25.7,460.2z"/>
	</g>
</g>
<path fill="#111C24" d="M176.2,383.6H197v65h-20.8V383.6z"/>
<path fill="#111C24" d="M207.5,352.9h72.9v19h-51.8v20.6h45.7v19h-45.7v37.1h-21.1V352.9z"/>
<path fill="#111C24" d="M300.9,450c-3.5,0-6.7-0.5-9.8-1.4c-3.1-1-5.7-2.4-8-4.3c-2.3-1.9-4.1-4.3-5.4-7c-1.3-2.8-2-6-2-9.6v-0.3
	c0-4,0.7-7.5,2.2-10.4c1.5-2.9,3.5-5.3,6.1-7.2c2.6-1.9,5.7-3.3,9.3-4.3c3.6-1,7.6-1.4,12-1.4c3.7,0,7,0.3,9.8,0.8
	c2.8,0.5,5.5,1.3,8.1,2.2v-1.2c0-4.4-1.3-7.7-4-10c-2.6-2.3-6.6-3.4-11.8-3.4c-4,0-7.5,0.3-10.6,1c-3.1,0.7-6.3,1.7-9.6,2.9
	l-5.2-15.9c4-1.7,8.2-3.1,12.6-4.2c4.4-1.1,9.7-1.6,15.9-1.6c5.7,0,10.6,0.7,14.7,2.1c4.1,1.4,7.4,3.4,10,6.1c2.7,2.7,4.7,6.1,6,10
	c1.3,4,1.9,8.4,1.9,13.3v42.5h-20.1v-7.9c-2.6,2.8-5.6,5.1-9.2,6.8C310.3,449.1,306,450,300.9,450z M307.2,435.6
	c4.9,0,8.9-1.2,11.8-3.6c3-2.4,4.4-5.5,4.4-9.3v-3.7c-1.8-0.8-3.9-1.5-6.1-2c-2.2-0.5-4.6-0.8-7.2-0.8c-4.5,0-8,0.9-10.5,2.6
	c-2.6,1.7-3.8,4.2-3.8,7.5v0.3c0,2.8,1,5,3.1,6.6C301.1,434.8,303.8,435.6,307.2,435.6z"/>
<path fill="#111C24" d="M385.9,450.2c-5.5,0-10.6-1-15.2-3c-4.7-2-8.7-4.7-12.1-8.1c-3.4-3.4-6-7.4-7.9-12
	c-1.9-4.6-2.9-9.5-2.9-14.7v-0.3c0-5.2,1-10.1,2.9-14.8c1.9-4.6,4.6-8.7,7.9-12.2c3.4-3.5,7.4-6.2,12.1-8.2c4.7-2,9.9-3,15.5-3
	c6.9,0,12.7,1.1,17.2,3.3c4.6,2.2,8.6,5.2,12,9l-12.7,13.7c-2.4-2.5-4.8-4.4-7.3-5.9c-2.5-1.5-5.6-2.2-9.4-2.2c-2.6,0-5,0.5-7.2,1.6
	c-2.1,1-4,2.5-5.6,4.3c-1.6,1.8-2.8,3.9-3.7,6.4c-0.9,2.4-1.3,5-1.3,7.7v0.3c0,2.8,0.4,5.5,1.3,7.9c0.9,2.5,2.1,4.6,3.8,6.4
	c1.6,1.8,3.6,3.3,5.9,4.3c2.3,1.1,4.8,1.6,7.7,1.6c3.5,0,6.5-0.7,9.1-2.1c2.6-1.4,5.2-3.3,7.7-5.7l12.2,12.3
	c-3.6,3.9-7.6,7.1-12.2,9.6C399.1,449,393.1,450.2,385.9,450.2z"/>
<path fill="#111C24" d="M447.9,449.8c-3.2,0-6.1-0.3-8.7-1c-2.6-0.7-4.8-1.9-6.7-3.6c-1.9-1.7-3.3-4-4.4-6.8
	c-1.1-2.8-1.6-6.3-1.6-10.6v-34.7h-8.8v-17.8h8.8v-18.7h20.8v18.7h17.2v17.8h-17.2v31.4c0,4.8,2.2,7.1,6.7,7.1
	c3.6,0,7.1-0.9,10.3-2.7v16.7c-2.2,1.3-4.6,2.3-7.2,3.1C454.4,449.4,451.4,449.8,447.9,449.8z"/>
<path fill="#111C24" d="M506,450.2c-5.7,0-10.9-1-15.7-2.9c-4.8-2-9-4.7-12.5-8.1c-3.5-3.4-6.3-7.4-8.3-12c-2-4.6-3-9.6-3-14.8v-0.3
	c0-5.3,1-10.2,3-14.8c2-4.6,4.8-8.6,8.3-12.1c3.6-3.5,7.7-6.2,12.6-8.2c4.8-2,10.1-3,15.9-3c5.6,0,10.9,1,15.7,2.9
	c4.8,2,9,4.6,12.5,8.1c3.5,3.4,6.3,7.4,8.3,12c2,4.6,3,9.6,3,14.8v0.3c0,5.3-1,10.2-3,14.8c-2,4.6-4.8,8.6-8.3,12.1
	c-3.6,3.5-7.8,6.2-12.6,8.2C517,449.2,511.7,450.2,506,450.2z M506.2,432.3c3,0,5.7-0.5,8-1.6c2.3-1,4.3-2.5,6-4.3
	c1.6-1.8,2.9-3.9,3.8-6.4c0.9-2.4,1.3-5,1.3-7.7v-0.3c0-2.7-0.5-5.3-1.4-7.7c-0.9-2.4-2.2-4.6-4-6.4c-1.7-1.9-3.8-3.4-6.2-4.4
	c-2.4-1.1-5-1.6-7.8-1.6c-3,0-5.7,0.5-8,1.6c-2.3,1-4.3,2.5-5.9,4.3c-1.6,1.8-2.9,3.9-3.8,6.4c-0.9,2.4-1.3,5-1.3,7.7v0.3
	c0,2.7,0.5,5.3,1.4,7.7c0.9,2.4,2.2,4.6,4,6.4c1.7,1.9,3.8,3.4,6.1,4.4C500.7,431.8,503.3,432.3,506.2,432.3z"/>
<path fill="#111C24" d="M549.8,375.3h20.8v14.8c2.1-5,5-9,8.6-12c3.6-3,8.6-4.4,14.8-4.1v21.7h-1.1c-6.9,0-12.4,2.1-16.3,6.3
	c-4,4.2-5.9,10.7-5.9,19.6v27.1h-20.8V375.3z"/>
<circle fill="#111C24" cx="186.6" cy="364.5" r="11.7"/>
<path fill="#7AB800" d="M82.9,331.4c-35.7,0-64.6,28.9-64.6,64.6v0h0c0,6.2,5.1,11.3,11.3,11.3c6.2,0,11.3-5.1,11.3-11.3l0,0v0
	c0-23.2,18.8-42,42-42c23.2,0,42,18.8,42,42c0,23.2-18.8,42-42,42l0,0c-6.2,0-11.3,5.1-11.3,11.3c0,6.2,5.1,11.3,11.3,11.3l0,0
	c35.7,0,64.6-28.9,64.6-64.6C147.5,360.3,118.6,331.4,82.9,331.4z"/>
<path fill="#90959C" d="M39.2,454.9c-3.8,3.8-10.2,3.7-14.2-0.3l-1.2-1.2c-4-4-4.1-10.4-0.3-14.2l28.9-28.9
	c3.8-3.8,10.2-3.7,14.2,0.3l1.2,1.2c4,4,4.1,10.4,0.3,14.2L39.2,454.9z"/>
</svg>
