<?xml version="1.0"?>
<svg version="1.1" xmlns="http://www.w3.org/2000/svg" xmlns:xlink="http://www.w3.org/1999/xlink" width="612" height="140">
    <desc iVinci="yes" version="4.5" gridStep="20" showGrid="no" snapToGrid="no" codePlatform="0"/>
    <g id="Layer1" opacity="1">
        <g id="Shape1">
            <desc shapeID="1" type="0" basicInfo-basicType="0" basicInfo-roundedRectRadius="12" basicInfo-polygonSides="6" basicInfo-starPoints="5" bounding="rect(-12.9,-12.9,25.8,25.8)" text="" font-familyName="" font-pixelSize="20" font-bold="0" font-underline="0" font-alignment="1" strokeStyle="0" markerStart="0" markerEnd="0" shadowEnabled="0" shadowOffsetX="0" shadowOffsetY="2" shadowBlur="4" shadowOpacity="160" blurEnabled="0" blurRadius="4" transform="matrix(1,0,0,1,82.55,67.6)" pers-center="0,0" pers-size="0,0" pers-start="0,0" pers-end="0,0" locked="0" mesh="" flag=""/>
            <path id="shapePath1" d="M95.45,67.6 C95.45,74.7 89.65,80.5 82.55,80.5 C75.45,80.5 69.65,74.7 69.65,67.6 C69.65,60.5 75.45,54.7 82.55,54.7 C89.75,54.7 95.45,60.5 95.45,67.6 Z" style="stroke:none;fill-rule:evenodd;fill:#adafb2;fill-opacity:1;"/>
        </g>
        <g id="Shape2">
            <desc shapeID="2" type="0" basicInfo-basicType="0" basicInfo-roundedRectRadius="12" basicInfo-polygonSides="6" basicInfo-starPoints="5" bounding="rect(-10.4,-32.5,20.8,65)" text="" font-familyName="" font-pixelSize="20" font-bold="0" font-underline="0" font-alignment="1" strokeStyle="0" markerStart="0" markerEnd="0" shadowEnabled="0" shadowOffsetX="0" shadowOffsetY="2" shadowBlur="4" shadowOpacity="160" blurEnabled="0" blurRadius="4" transform="matrix(1,0,0,1,186.45,87.7)" pers-center="0,0" pers-size="0,0" pers-start="0,0" pers-end="0,0" locked="0" mesh="" flag=""/>
            <path id="shapePath2" d="M176.05,55.2 L196.85,55.2 L196.85,120.2 L176.05,120.2 L176.05,55.2 Z" style="stroke:none;fill-rule:evenodd;fill:#adafb2;fill-opacity:1;"/>
        </g>
        <g id="Shape3">
            <desc shapeID="3" type="0" basicInfo-basicType="0" basicInfo-roundedRectRadius="12" basicInfo-polygonSides="6" basicInfo-starPoints="5" bounding="rect(-36.45,-47.85,72.9,95.7)" text="" font-familyName="" font-pixelSize="20" font-bold="0" font-underline="0" font-alignment="1" strokeStyle="0" markerStart="0" markerEnd="0" shadowEnabled="0" shadowOffsetX="0" shadowOffsetY="2" shadowBlur="4" shadowOpacity="160" blurEnabled="0" blurRadius="4" transform="matrix(1,0,0,1,243.8,72.35)" pers-center="0,0" pers-size="0,0" pers-start="0,0" pers-end="0,0" locked="0" mesh="" flag=""/>
            <path id="shapePath3" d="M207.35,24.5 L280.25,24.5 L280.25,43.5 L228.45,43.5 L228.45,64.1 L274.15,64.1 L274.15,83.1 L228.45,83.1 L228.45,120.2 L207.35,120.2 L207.35,24.5 Z" style="stroke:none;fill-rule:evenodd;fill:#adafb2;fill-opacity:1;"/>
        </g>
        <g id="Shape4">
            <desc shapeID="4" type="0" basicInfo-basicType="0" basicInfo-roundedRectRadius="12" basicInfo-polygonSides="6" basicInfo-starPoints="5" bounding="rect(-33.7,-37.65,67.4,75.3)" text="" font-familyName="" font-pixelSize="20" font-bold="0" font-underline="0" font-alignment="1" strokeStyle="0" markerStart="0" markerEnd="0" shadowEnabled="0" shadowOffsetX="0" shadowOffsetY="2" shadowBlur="4" shadowOpacity="160" blurEnabled="0" blurRadius="4" transform="matrix(1,0,0,1,309.25,83.95)" pers-center="0,0" pers-size="0,0" pers-start="0,0" pers-end="0,0" locked="0" mesh="" flag=""/>
            <path id="shapePath4" d="M300.75,121.6 C297.25,121.6 294.05,121.1 290.95,120.2 C287.85,119.2 285.25,117.8 282.95,115.9 C280.65,114 278.85,111.6 277.55,108.9 C276.25,106.1 275.55,102.9 275.55,99.3 L275.55,99 C275.55,95 276.25,91.5 277.75,88.6 C279.25,85.7 281.25,83.3 283.85,81.4 C286.45,79.5 289.55,78.1 293.15,77.1 C296.75,76.1 300.75,75.7 305.15,75.7 C308.85,75.7 312.15,76 314.95,76.5 C317.75,77 320.45,77.8 323.05,78.7 L323.05,77.5 C323.05,73.1 321.75,69.8 319.05,67.5 C316.45,65.2 312.45,64.1 307.25,64.1 C303.25,64.1 299.75,64.4 296.65,65.1 C293.55,65.8 290.35,66.8 287.05,68 L281.85,52.1 C285.85,50.4 290.05,49 294.45,47.9 C298.85,46.8 304.15,46.3 310.35,46.3 C316.05,46.3 320.95,47 325.05,48.4 C329.15,49.8 332.45,51.8 335.05,54.5 C337.75,57.2 339.75,60.6 341.05,64.5 C342.35,68.5 342.95,72.9 342.95,77.8 L342.95,120.3 L322.85,120.3 L322.85,112.4 C320.25,115.2 317.25,117.5 313.65,119.2 C310.15,120.7 305.85,121.6 300.75,121.6 M307.05,107.2 C311.95,107.2 315.95,106 318.85,103.6 C321.85,101.2 323.25,98.1 323.25,94.3 L323.25,90.6 C321.45,89.8 319.35,89.1 317.15,88.6 C314.95,88.1 312.55,87.8 309.95,87.8 C305.45,87.8 301.95,88.7 299.45,90.4 C296.85,92.1 295.65,94.6 295.65,97.9 L295.65,98.2 C295.65,101 296.65,103.2 298.75,104.8 C300.95,106.4 303.65,107.2 307.05,107.2 Z" style="stroke:none;fill-rule:evenodd;fill:#adafb2;fill-opacity:1;"/>
        </g>
        <g id="Shape5">
            <desc shapeID="5" type="0" basicInfo-basicType="0" basicInfo-roundedRectRadius="12" basicInfo-polygonSides="6" basicInfo-starPoints="5" bounding="rect(-34.05,-38.15,68.1,76.3)" text="" font-familyName="" font-pixelSize="20" font-bold="0" font-underline="0" font-alignment="1" strokeStyle="0" markerStart="0" markerEnd="0" shadowEnabled="0" shadowOffsetX="0" shadowOffsetY="2" shadowBlur="4" shadowOpacity="160" blurEnabled="0" blurRadius="4" transform="matrix(1,0,0,1,381.7,83.65)" pers-center="0,0" pers-size="0,0" pers-start="0,0" pers-end="0,0" locked="0" mesh="" flag=""/>
            <path id="shapePath5" d="M385.75,121.8 C380.25,121.8 375.15,120.8 370.55,118.8 C365.85,116.8 361.85,114.1 358.45,110.7 C355.05,107.3 352.45,103.3 350.55,98.7 C348.65,94.1 347.65,89.2 347.65,84 L347.65,83.7 C347.65,78.5 348.65,73.6 350.55,68.9 C352.45,64.3 355.15,60.2 358.45,56.7 C361.85,53.2 365.85,50.5 370.55,48.5 C375.25,46.5 380.45,45.5 386.05,45.5 C392.95,45.5 398.75,46.6 403.25,48.8 C407.85,51 411.85,54 415.25,57.8 L402.55,71.5 C400.15,69 397.75,67.1 395.25,65.6 C392.75,64.1 389.65,63.4 385.85,63.4 C383.25,63.4 380.85,63.9 378.65,65 C376.55,66 374.65,67.5 373.05,69.3 C371.45,71.1 370.25,73.2 369.35,75.7 C368.45,78.1 368.05,80.7 368.05,83.4 L368.05,83.7 C368.05,86.5 368.45,89.2 369.35,91.6 C370.25,94.1 371.45,96.2 373.15,98 C374.75,99.8 376.75,101.3 379.05,102.3 C381.35,103.4 383.85,103.9 386.75,103.9 C390.25,103.9 393.25,103.2 395.85,101.8 C398.45,100.4 401.05,98.5 403.55,96.1 L415.75,108.4 C412.15,112.3 408.15,115.5 403.55,118 C398.95,120.6 392.95,121.8 385.75,121.8 Z" style="stroke:none;fill-rule:evenodd;fill:#adafb2;fill-opacity:1;"/>
        </g>
        <g id="Shape6">
            <desc shapeID="6" type="0" basicInfo-basicType="0" basicInfo-roundedRectRadius="12" basicInfo-polygonSides="6" basicInfo-starPoints="5" bounding="rect(-23.4,-46.6,46.8,93.2)" text="" font-familyName="" font-pixelSize="20" font-bold="0" font-underline="0" font-alignment="1" strokeStyle="0" markerStart="0" markerEnd="0" shadowEnabled="0" shadowOffsetX="0" shadowOffsetY="2" shadowBlur="4" shadowOpacity="160" blurEnabled="0" blurRadius="4" transform="matrix(1,0,0,1,440.95,74.8)" pers-center="0,0" pers-size="0,0" pers-start="0,0" pers-end="0,0" locked="0" mesh="" flag=""/>
            <path id="shapePath6" d="M447.75,121.4 C444.55,121.4 441.65,121.1 439.05,120.4 C436.45,119.7 434.25,118.5 432.35,116.8 C430.45,115.1 429.05,112.8 427.95,110 C426.85,107.2 426.35,103.7 426.35,99.4 L426.35,64.7 L417.55,64.7 L417.55,46.9 L426.35,46.9 L426.35,28.2 L447.15,28.2 L447.15,46.9 L464.35,46.9 L464.35,64.7 L447.15,64.7 L447.15,96.1 C447.15,100.9 449.35,103.2 453.85,103.2 C457.45,103.2 460.95,102.3 464.15,100.5 L464.15,117.2 C461.95,118.5 459.55,119.5 456.95,120.3 C454.25,121 451.25,121.4 447.75,121.4 Z" style="stroke:none;fill-rule:evenodd;fill:#adafb2;fill-opacity:1;"/>
        </g>
        <g id="Shape7">
            <desc shapeID="7" type="0" basicInfo-basicType="0" basicInfo-roundedRectRadius="12" basicInfo-polygonSides="6" basicInfo-starPoints="5" bounding="rect(-39.65,-38.1,79.3,76.2)" text="" font-familyName="" font-pixelSize="20" font-bold="0" font-underline="0" font-alignment="1" strokeStyle="0" markerStart="0" markerEnd="0" shadowEnabled="0" shadowOffsetX="0" shadowOffsetY="2" shadowBlur="4" shadowOpacity="160" blurEnabled="0" blurRadius="4" transform="matrix(1,0,0,1,506,83.7)" pers-center="0,0" pers-size="0,0" pers-start="0,0" pers-end="0,0" locked="0" mesh="" flag=""/>
            <path id="shapePath7" d="M505.85,121.8 C500.15,121.8 494.95,120.8 490.15,118.9 C485.35,116.9 481.15,114.2 477.65,110.8 C474.15,107.4 471.35,103.4 469.35,98.8 C467.35,94.2 466.35,89.2 466.35,84 L466.35,83.7 C466.35,78.4 467.35,73.5 469.35,68.9 C471.35,64.3 474.15,60.3 477.65,56.8 C481.25,53.3 485.35,50.6 490.25,48.6 C495.05,46.6 500.35,45.6 506.15,45.6 C511.75,45.6 517.05,46.6 521.85,48.5 C526.65,50.5 530.85,53.1 534.35,56.6 C537.85,60 540.65,64 542.65,68.6 C544.65,73.2 545.65,78.2 545.65,83.4 L545.65,83.7 C545.65,89 544.65,93.9 542.65,98.5 C540.65,103.1 537.85,107.1 534.35,110.6 C530.75,114.1 526.55,116.8 521.75,118.8 C516.85,120.8 511.55,121.8 505.85,121.8 M506.05,103.9 C509.05,103.9 511.75,103.4 514.05,102.3 C516.35,101.3 518.35,99.8 520.05,98 C521.65,96.2 522.95,94.1 523.85,91.6 C524.75,89.2 525.15,86.6 525.15,83.9 L525.15,83.6 C525.15,80.9 524.65,78.3 523.75,75.9 C522.85,73.5 521.55,71.3 519.75,69.5 C518.05,67.6 515.95,66.1 513.55,65.1 C511.15,64 508.55,63.5 505.75,63.5 C502.75,63.5 500.05,64 497.75,65.1 C495.45,66.1 493.45,67.6 491.85,69.4 C490.25,71.2 488.95,73.3 488.05,75.8 C487.15,78.2 486.75,80.8 486.75,83.5 L486.75,83.8 C486.75,86.5 487.25,89.1 488.15,91.5 C489.05,93.9 490.35,96.1 492.15,97.9 C493.85,99.8 495.95,101.3 498.25,102.3 C500.55,103.4 503.15,103.9 506.05,103.9 Z" style="stroke:none;fill-rule:evenodd;fill:#adafb2;fill-opacity:1;"/>
        </g>
        <g id="Shape8">
            <desc shapeID="8" type="0" basicInfo-basicType="0" basicInfo-roundedRectRadius="12" basicInfo-polygonSides="6" basicInfo-starPoints="5" bounding="rect(-22.1,-37.3699,44.2,74.7398)" text="" font-familyName="" font-pixelSize="20" font-bold="0" font-underline="0" font-alignment="1" strokeStyle="0" markerStart="0" markerEnd="0" shadowEnabled="0" shadowOffsetX="0" shadowOffsetY="2" shadowBlur="4" shadowOpacity="160" blurEnabled="0" blurRadius="4" transform="matrix(1,0,0,1,571.75,82.9301)" pers-center="0,0" pers-size="0,0" pers-start="0,0" pers-end="0,0" locked="0" mesh="" flag=""/>
            <path id="shapePath8" d="M549.65,46.9 L570.45,46.9 L570.45,61.7 C572.55,56.7 575.45,52.7 579.05,49.7 C582.65,46.7 587.65,45.3 593.85,45.6 L593.85,67.3 L592.75,67.3 C585.85,67.3 580.35,69.4 576.45,73.6 C572.45,77.8 570.55,84.3 570.55,93.2 L570.55,120.3 L549.75,120.3 L549.75,46.9 L549.65,46.9 Z" style="stroke:none;fill-rule:evenodd;fill:#adafb2;fill-opacity:1;"/>
        </g>
        <g id="Shape9">
            <desc shapeID="9" type="0" basicInfo-basicType="0" basicInfo-roundedRectRadius="12" basicInfo-polygonSides="6" basicInfo-starPoints="5" bounding="rect(-11.7,-11.7,23.4,23.4)" text="" font-familyName="" font-pixelSize="20" font-bold="0" font-underline="0" font-alignment="1" strokeStyle="0" markerStart="0" markerEnd="0" shadowEnabled="0" shadowOffsetX="0" shadowOffsetY="2" shadowBlur="4" shadowOpacity="160" blurEnabled="0" blurRadius="4" transform="matrix(1,0,0,1,186.45,36.1)" pers-center="0,0" pers-size="0,0" pers-start="0,0" pers-end="0,0" locked="0" mesh="" flag=""/>
            <path id="shapePath9" d="M198.15,36.1 C198.15,42.5617 192.912,47.8 186.45,47.8 C179.988,47.8 174.75,42.5617 174.75,36.1 C174.75,29.6383 179.988,24.4 186.45,24.4 C192.912,24.4 198.15,29.6383 198.15,36.1 Z" style="stroke:none;fill-rule:evenodd;fill:#adafb2;fill-opacity:1;"/>
        </g>
        <g id="Shape10">
            <desc shapeID="10" type="0" basicInfo-basicType="0" basicInfo-roundedRectRadius="12" basicInfo-polygonSides="6" basicInfo-starPoints="5" bounding="rect(-64.6,-64.6,129.2,129.2)" text="" font-familyName="" font-pixelSize="20" font-bold="0" font-underline="0" font-alignment="1" strokeStyle="0" markerStart="0" markerEnd="0" shadowEnabled="0" shadowOffsetX="0" shadowOffsetY="2" shadowBlur="4" shadowOpacity="160" blurEnabled="0" blurRadius="4" transform="matrix(1,0,0,1,82.75,67.6)" pers-center="0,0" pers-size="0,0" pers-start="0,0" pers-end="0,0" locked="0" mesh="" flag=""/>
            <path id="shapePath10" d="M82.75,3 C47.05,3 18.15,31.9 18.15,67.6 C18.15,73.8 23.25,78.9 29.45,78.9 C35.65,78.9 40.75,73.8 40.75,67.6 C40.75,44.4 59.55,25.6 82.75,25.6 C105.95,25.6 124.75,44.4 124.75,67.6 C124.75,90.8 105.95,109.6 82.75,109.6 C76.55,109.6 71.45,114.7 71.45,120.9 C71.45,127.1 76.55,132.2 82.75,132.2 C118.45,132.2 147.35,103.3 147.35,67.6 C147.35,31.9 118.45,3 82.75,3 Z" style="stroke:none;fill-rule:evenodd;fill:#adafb2;fill-opacity:1;"/>
        </g>
        <g id="Shape11">
            <desc shapeID="11" type="0" basicInfo-basicType="0" basicInfo-roundedRectRadius="12" basicInfo-polygonSides="6" basicInfo-starPoints="5" bounding="rect(-25.0769,-25.0769,50.1538,50.1538)" text="" font-familyName="" font-pixelSize="20" font-bold="0" font-underline="0" font-alignment="1" strokeStyle="0" markerStart="0" markerEnd="0" shadowEnabled="0" shadowOffsetX="0" shadowOffsetY="2" shadowBlur="4" shadowOpacity="160" blurEnabled="0" blurRadius="4" transform="matrix(1,0,0,1,45.65,104.2)" pers-center="0,0" pers-size="0,0" pers-start="0,0" pers-end="0,0" locked="0" mesh="" flag=""/>
            <path id="shapePath11" d="M39.05,126.5 C35.25,130.3 28.85,130.2 24.85,126.2 L23.65,125 C19.65,121 19.55,114.6 23.35,110.8 L52.25,81.9 C56.05,78.1 62.45,78.2 66.45,82.2 L67.65,83.4 C71.65,87.4 71.75,93.8 67.95,97.6 L39.05,126.5 Z" style="stroke:none;fill-rule:evenodd;fill:#adafb2;fill-opacity:1;"/>
        </g>
    </g>
</svg>
