<?xml version="1.0"?>
<svg version="1.1" xmlns="http://www.w3.org/2000/svg" xmlns:xlink="http://www.w3.org/1999/xlink" width="612" height="140">
    <desc iVinci="yes" version="4.5" gridStep="20" showGrid="no" snapToGrid="no" codePlatform="0"/>
    <g id="Layer1" opacity="1">
        <g id="Shape1">
            <desc shapeID="1" type="0" basicInfo-basicType="0" basicInfo-roundedRectRadius="12" basicInfo-polygonSides="6" basicInfo-starPoints="5" bounding="rect(-12.9,-12.9,25.8,25.8)" text="" font-familyName="" font-pixelSize="20" font-bold="0" font-underline="0" font-alignment="1" strokeStyle="0" markerStart="0" markerEnd="0" shadowEnabled="0" shadowOffsetX="0" shadowOffsetY="2" shadowBlur="4" shadowOpacity="160" blurEnabled="0" blurRadius="4" transform="matrix(1,0,0,1,82.55,68.6)" pers-center="0,0" pers-size="0,0" pers-start="0,0" pers-end="0,0" locked="0" mesh="" flag=""/>
            <path id="shapePath1" d="M95.45,68.6 C95.45,75.7 89.65,81.5 82.55,81.5 C75.45,81.5 69.65,75.7 69.65,68.6 C69.65,61.5 75.45,55.7 82.55,55.7 C89.75,55.7 95.45,61.5 95.45,68.6 Z" style="stroke:none;fill-rule:nonzero;fill:#9a9b9c;fill-opacity:1;"/>
        </g>
        <g id="Shape2">
            <desc shapeID="2" type="0" basicInfo-basicType="0" basicInfo-roundedRectRadius="12" basicInfo-polygonSides="6" basicInfo-starPoints="5" bounding="rect(-10.4,-32.5,20.8,65)" text="" font-familyName="" font-pixelSize="20" font-bold="0" font-underline="0" font-alignment="1" strokeStyle="0" markerStart="0" markerEnd="0" shadowEnabled="0" shadowOffsetX="0" shadowOffsetY="2" shadowBlur="4" shadowOpacity="160" blurEnabled="0" blurRadius="4" transform="matrix(1,0,0,1,186.45,88.7)" pers-center="0,0" pers-size="0,0" pers-start="0,0" pers-end="0,0" locked="0" mesh="" flag=""/>
            <path id="shapePath2" d="M176.05,56.2 L196.85,56.2 L196.85,121.2 L176.05,121.2 L176.05,56.2 Z" style="stroke:none;fill-rule:nonzero;fill:#111c24;fill-opacity:1;"/>
        </g>
        <g id="Shape3">
            <desc shapeID="3" type="0" basicInfo-basicType="0" basicInfo-roundedRectRadius="12" basicInfo-polygonSides="6" basicInfo-starPoints="5" bounding="rect(-36.45,-47.85,72.9,95.7)" text="" font-familyName="" font-pixelSize="20" font-bold="0" font-underline="0" font-alignment="1" strokeStyle="0" markerStart="0" markerEnd="0" shadowEnabled="0" shadowOffsetX="0" shadowOffsetY="2" shadowBlur="4" shadowOpacity="160" blurEnabled="0" blurRadius="4" transform="matrix(1,0,0,1,243.8,73.35)" pers-center="0,0" pers-size="0,0" pers-start="0,0" pers-end="0,0" locked="0" mesh="" flag=""/>
            <path id="shapePath3" d="M207.35,25.5 L280.25,25.5 L280.25,44.5 L228.45,44.5 L228.45,65.1 L274.15,65.1 L274.15,84.1 L228.45,84.1 L228.45,121.2 L207.35,121.2 L207.35,25.5 Z" style="stroke:none;fill-rule:nonzero;fill:#111c24;fill-opacity:1;"/>
        </g>
        <g id="Shape4">
            <desc shapeID="4" type="0" basicInfo-basicType="0" basicInfo-roundedRectRadius="12" basicInfo-polygonSides="6" basicInfo-starPoints="5" bounding="rect(-33.7,-37.65,67.4,75.3)" text="" font-familyName="" font-pixelSize="20" font-bold="0" font-underline="0" font-alignment="1" strokeStyle="0" markerStart="0" markerEnd="0" shadowEnabled="0" shadowOffsetX="0" shadowOffsetY="2" shadowBlur="4" shadowOpacity="160" blurEnabled="0" blurRadius="4" transform="matrix(1,0,0,1,309.25,84.95)" pers-center="0,0" pers-size="0,0" pers-start="0,0" pers-end="0,0" locked="0" mesh="" flag=""/>
            <path id="shapePath4" d="M300.75,122.6 C297.25,122.6 294.05,122.1 290.95,121.2 C287.85,120.2 285.25,118.8 282.95,116.9 C280.65,115 278.85,112.6 277.55,109.9 C276.25,107.1 275.55,103.9 275.55,100.3 L275.55,100 C275.55,96 276.25,92.5 277.75,89.6 C279.25,86.7 281.25,84.3 283.85,82.4 C286.45,80.5 289.55,79.1 293.15,78.1 C296.75,77.1 300.75,76.7 305.15,76.7 C308.85,76.7 312.15,77 314.95,77.5 C317.75,78 320.45,78.8 323.05,79.7 L323.05,78.5 C323.05,74.1 321.75,70.8 319.05,68.5 C316.45,66.2 312.45,65.1 307.25,65.1 C303.25,65.1 299.75,65.4 296.65,66.1 C293.55,66.8 290.35,67.8 287.05,69 L281.85,53.1 C285.85,51.4 290.05,50 294.45,48.9 C298.85,47.8 304.15,47.3 310.35,47.3 C316.05,47.3 320.95,48 325.05,49.4 C329.15,50.8 332.45,52.8 335.05,55.5 C337.75,58.2 339.75,61.6 341.05,65.5 C342.35,69.5 342.95,73.9 342.95,78.8 L342.95,121.3 L322.85,121.3 L322.85,113.4 C320.25,116.2 317.25,118.5 313.65,120.2 C310.15,121.7 305.85,122.6 300.75,122.6 M307.05,108.2 C311.95,108.2 315.95,107 318.85,104.6 C321.85,102.2 323.25,99.1 323.25,95.3 L323.25,91.6 C321.45,90.8 319.35,90.1 317.15,89.6 C314.95,89.1 312.55,88.8 309.95,88.8 C305.45,88.8 301.95,89.7 299.45,91.4 C296.85,93.1 295.65,95.6 295.65,98.9 L295.65,99.2 C295.65,102 296.65,104.2 298.75,105.8 C300.95,107.4 303.65,108.2 307.05,108.2 Z" style="stroke:none;fill-rule:nonzero;fill:#111c24;fill-opacity:1;"/>
        </g>
        <g id="Shape5">
            <desc shapeID="5" type="0" basicInfo-basicType="0" basicInfo-roundedRectRadius="12" basicInfo-polygonSides="6" basicInfo-starPoints="5" bounding="rect(-34.05,-38.15,68.1,76.3)" text="" font-familyName="" font-pixelSize="20" font-bold="0" font-underline="0" font-alignment="1" strokeStyle="0" markerStart="0" markerEnd="0" shadowEnabled="0" shadowOffsetX="0" shadowOffsetY="2" shadowBlur="4" shadowOpacity="160" blurEnabled="0" blurRadius="4" transform="matrix(1,0,0,1,381.7,84.65)" pers-center="0,0" pers-size="0,0" pers-start="0,0" pers-end="0,0" locked="0" mesh="" flag=""/>
            <path id="shapePath5" d="M385.75,122.8 C380.25,122.8 375.15,121.8 370.55,119.8 C365.85,117.8 361.85,115.1 358.45,111.7 C355.05,108.3 352.45,104.3 350.55,99.7 C348.65,95.1 347.65,90.2 347.65,85 L347.65,84.7 C347.65,79.5 348.65,74.6 350.55,69.9 C352.45,65.3 355.15,61.2 358.45,57.7 C361.85,54.2 365.85,51.5 370.55,49.5 C375.25,47.5 380.45,46.5 386.05,46.5 C392.95,46.5 398.75,47.6 403.25,49.8 C407.85,52 411.85,55 415.25,58.8 L402.55,72.5 C400.15,70 397.75,68.1 395.25,66.6 C392.75,65.1 389.65,64.4 385.85,64.4 C383.25,64.4 380.85,64.9 378.65,66 C376.55,67 374.65,68.5 373.05,70.3 C371.45,72.1 370.25,74.2 369.35,76.7 C368.45,79.1 368.05,81.7 368.05,84.4 L368.05,84.7 C368.05,87.5 368.45,90.2 369.35,92.6 C370.25,95.1 371.45,97.2 373.15,99 C374.75,100.8 376.75,102.3 379.05,103.3 C381.35,104.4 383.85,104.9 386.75,104.9 C390.25,104.9 393.25,104.2 395.85,102.8 C398.45,101.4 401.05,99.5 403.55,97.1 L415.75,109.4 C412.15,113.3 408.15,116.5 403.55,119 C398.95,121.6 392.95,122.8 385.75,122.8 Z" style="stroke:none;fill-rule:nonzero;fill:#111c24;fill-opacity:1;"/>
        </g>
        <g id="Shape6">
            <desc shapeID="6" type="0" basicInfo-basicType="0" basicInfo-roundedRectRadius="12" basicInfo-polygonSides="6" basicInfo-starPoints="5" bounding="rect(-23.4,-46.6,46.8,93.2)" text="" font-familyName="" font-pixelSize="20" font-bold="0" font-underline="0" font-alignment="1" strokeStyle="0" markerStart="0" markerEnd="0" shadowEnabled="0" shadowOffsetX="0" shadowOffsetY="2" shadowBlur="4" shadowOpacity="160" blurEnabled="0" blurRadius="4" transform="matrix(1,0,0,1,440.95,75.8)" pers-center="0,0" pers-size="0,0" pers-start="0,0" pers-end="0,0" locked="0" mesh="" flag=""/>
            <path id="shapePath6" d="M447.75,122.4 C444.55,122.4 441.65,122.1 439.05,121.4 C436.45,120.7 434.25,119.5 432.35,117.8 C430.45,116.1 429.05,113.8 427.95,111 C426.85,108.2 426.35,104.7 426.35,100.4 L426.35,65.7 L417.55,65.7 L417.55,47.9 L426.35,47.9 L426.35,29.2 L447.15,29.2 L447.15,47.9 L464.35,47.9 L464.35,65.7 L447.15,65.7 L447.15,97.1 C447.15,101.9 449.35,104.2 453.85,104.2 C457.45,104.2 460.95,103.3 464.15,101.5 L464.15,118.2 C461.95,119.5 459.55,120.5 456.95,121.3 C454.25,122 451.25,122.4 447.75,122.4 Z" style="stroke:none;fill-rule:nonzero;fill:#111c24;fill-opacity:1;"/>
        </g>
        <g id="Shape7">
            <desc shapeID="7" type="0" basicInfo-basicType="0" basicInfo-roundedRectRadius="12" basicInfo-polygonSides="6" basicInfo-starPoints="5" bounding="rect(-39.65,-38.1,79.3,76.2)" text="" font-familyName="" font-pixelSize="20" font-bold="0" font-underline="0" font-alignment="1" strokeStyle="0" markerStart="0" markerEnd="0" shadowEnabled="0" shadowOffsetX="0" shadowOffsetY="2" shadowBlur="4" shadowOpacity="160" blurEnabled="0" blurRadius="4" transform="matrix(1,0,0,1,506,84.7)" pers-center="0,0" pers-size="0,0" pers-start="0,0" pers-end="0,0" locked="0" mesh="" flag=""/>
            <path id="shapePath7" d="M505.85,122.8 C500.15,122.8 494.95,121.8 490.15,119.9 C485.35,117.9 481.15,115.2 477.65,111.8 C474.15,108.4 471.35,104.4 469.35,99.8 C467.35,95.2 466.35,90.2 466.35,85 L466.35,84.7 C466.35,79.4 467.35,74.5 469.35,69.9 C471.35,65.3 474.15,61.3 477.65,57.8 C481.25,54.3 485.35,51.6 490.25,49.6 C495.05,47.6 500.35,46.6 506.15,46.6 C511.75,46.6 517.05,47.6 521.85,49.5 C526.65,51.5 530.85,54.1 534.35,57.6 C537.85,61 540.65,65 542.65,69.6 C544.65,74.2 545.65,79.2 545.65,84.4 L545.65,84.7 C545.65,90 544.65,94.9 542.65,99.5 C540.65,104.1 537.85,108.1 534.35,111.6 C530.75,115.1 526.55,117.8 521.75,119.8 C516.85,121.8 511.55,122.8 505.85,122.8 M506.05,104.9 C509.05,104.9 511.75,104.4 514.05,103.3 C516.35,102.3 518.35,100.8 520.05,99 C521.65,97.2 522.95,95.1 523.85,92.6 C524.75,90.2 525.15,87.6 525.15,84.9 L525.15,84.6 C525.15,81.9 524.65,79.3 523.75,76.9 C522.85,74.5 521.55,72.3 519.75,70.5 C518.05,68.6 515.95,67.1 513.55,66.1 C511.15,65 508.55,64.5 505.75,64.5 C502.75,64.5 500.05,65 497.75,66.1 C495.45,67.1 493.45,68.6 491.85,70.4 C490.25,72.2 488.95,74.3 488.05,76.8 C487.15,79.2 486.75,81.8 486.75,84.5 L486.75,84.8 C486.75,87.5 487.25,90.1 488.15,92.5 C489.05,94.9 490.35,97.1 492.15,98.9 C493.85,100.8 495.95,102.3 498.25,103.3 C500.55,104.4 503.15,104.9 506.05,104.9 Z" style="stroke:none;fill-rule:nonzero;fill:#111c24;fill-opacity:1;"/>
        </g>
        <g id="Shape8">
            <desc shapeID="8" type="0" basicInfo-basicType="0" basicInfo-roundedRectRadius="12" basicInfo-polygonSides="6" basicInfo-starPoints="5" bounding="rect(-22.1,-37.3699,44.2,74.7398)" text="" font-familyName="" font-pixelSize="20" font-bold="0" font-underline="0" font-alignment="1" strokeStyle="0" markerStart="0" markerEnd="0" shadowEnabled="0" shadowOffsetX="0" shadowOffsetY="2" shadowBlur="4" shadowOpacity="160" blurEnabled="0" blurRadius="4" transform="matrix(1,0,0,1,571.75,83.9301)" pers-center="0,0" pers-size="0,0" pers-start="0,0" pers-end="0,0" locked="0" mesh="" flag=""/>
            <path id="shapePath8" d="M549.65,47.9 L570.45,47.9 L570.45,62.7 C572.55,57.7 575.45,53.7 579.05,50.7 C582.65,47.7 587.65,46.3 593.85,46.6 L593.85,68.3 L592.75,68.3 C585.85,68.3 580.35,70.4 576.45,74.6 C572.45,78.8 570.55,85.3 570.55,94.2 L570.55,121.3 L549.75,121.3 L549.75,47.9 L549.65,47.9 Z" style="stroke:none;fill-rule:nonzero;fill:#111c24;fill-opacity:1;"/>
        </g>
        <g id="Shape9">
            <desc shapeID="9" type="0" basicInfo-basicType="0" basicInfo-roundedRectRadius="12" basicInfo-polygonSides="6" basicInfo-starPoints="5" bounding="rect(-11.7,-11.7,23.4,23.4)" text="" font-familyName="" font-pixelSize="20" font-bold="0" font-underline="0" font-alignment="1" strokeStyle="0" markerStart="0" markerEnd="0" shadowEnabled="0" shadowOffsetX="0" shadowOffsetY="2" shadowBlur="4" shadowOpacity="160" blurEnabled="0" blurRadius="4" transform="matrix(1,0,0,1,186.45,37.1)" pers-center="0,0" pers-size="0,0" pers-start="0,0" pers-end="0,0" locked="0" mesh="" flag=""/>
            <path id="shapePath9" d="M198.15,37.1 C198.15,43.5617 192.912,48.8 186.45,48.8 C179.988,48.8 174.75,43.5617 174.75,37.1 C174.75,30.6383 179.988,25.4 186.45,25.4 C192.912,25.4 198.15,30.6383 198.15,37.1 Z" style="stroke:none;fill-rule:evenodd;fill:#111c24;fill-opacity:1;"/>
        </g>
        <g id="Shape10">
            <desc shapeID="10" type="0" basicInfo-basicType="0" basicInfo-roundedRectRadius="12" basicInfo-polygonSides="6" basicInfo-starPoints="5" bounding="rect(-64.6,-64.6,129.2,129.2)" text="" font-familyName="" font-pixelSize="20" font-bold="0" font-underline="0" font-alignment="1" strokeStyle="0" markerStart="0" markerEnd="0" shadowEnabled="0" shadowOffsetX="0" shadowOffsetY="2" shadowBlur="4" shadowOpacity="160" blurEnabled="0" blurRadius="4" transform="matrix(1,0,0,1,82.75,68.6)" pers-center="0,0" pers-size="0,0" pers-start="0,0" pers-end="0,0" locked="0" mesh="" flag=""/>
            <path id="shapePath10" d="M82.75,4 C47.05,4 18.15,32.9 18.15,68.6 C18.15,74.8 23.25,79.9 29.45,79.9 C35.65,79.9 40.75,74.8 40.75,68.6 C40.75,45.4 59.55,26.6 82.75,26.6 C105.95,26.6 124.75,45.4 124.75,68.6 C124.75,91.8 105.95,110.6 82.75,110.6 C76.55,110.6 71.45,115.7 71.45,121.9 C71.45,128.1 76.55,133.2 82.75,133.2 C118.45,133.2 147.35,104.3 147.35,68.6 C147.35,32.9 118.45,4 82.75,4 Z" style="stroke:none;fill-rule:nonzero;fill:#7ab800;fill-opacity:1;"/>
        </g>
        <g id="Shape11">
            <desc shapeID="11" type="0" basicInfo-basicType="0" basicInfo-roundedRectRadius="12" basicInfo-polygonSides="6" basicInfo-starPoints="5" bounding="rect(-25.0769,-25.0769,50.1538,50.1539)" text="" font-familyName="" font-pixelSize="20" font-bold="0" font-underline="0" font-alignment="1" strokeStyle="0" markerStart="0" markerEnd="0" shadowEnabled="0" shadowOffsetX="0" shadowOffsetY="2" shadowBlur="4" shadowOpacity="160" blurEnabled="0" blurRadius="4" transform="matrix(1,0,0,1,45.65,105.2)" pers-center="0,0" pers-size="0,0" pers-start="0,0" pers-end="0,0" locked="0" mesh="" flag=""/>
            <path id="shapePath11" d="M39.05,127.5 C35.25,131.3 28.85,131.2 24.85,127.2 L23.65,126 C19.65,122 19.55,115.6 23.35,111.8 L52.25,82.9 C56.05,79.1 62.45,79.2 66.45,83.2 L67.65,84.4 C71.65,88.4 71.75,94.8 67.95,98.6 L39.05,127.5 Z" style="stroke:none;fill-rule:nonzero;fill:#90959c;fill-opacity:1;"/>
        </g>
    </g>
</svg>
